<!--?xml version="1.0" encoding="utf-8"?-->
<!-- Generator: Adobe Illustrator 15.1.0, SVG Export Plug-In . SVG Version: 6.00 Build 0)  -->

<svg version="1.1" id="_x32_" xmlns="http://www.w3.org/2000/svg" xmlns:xlink="http://www.w3.org/1999/xlink" x="0px" y="0px" width="512px" height="512px" viewBox="0 0 512 512" style="width: 32px; height: 32px; opacity: 1;" xml:space="preserve">
<style type="text/css">

	.st0{fill:#4B4B4B;}

</style>
<g>
	<path class="st0" d="M460.031,129.031h-19.266v93.047h19.266c10.656,0,19.313-8.641,19.313-19.297v-54.438
		C479.344,137.688,470.688,129.031,460.031,129.031z" style="fill: rgb(75, 75, 75);"></path>
	<path class="st0" d="M460.031,352.328h-19.266v93.047h19.266c10.656,0,19.313-8.656,19.313-19.313v-54.438
		C479.344,360.969,470.688,352.328,460.031,352.328z" style="fill: rgb(75, 75, 75);"></path>
	<path class="st0" d="M460.031,240.688h-19.266v93.031h19.266c10.656,0,19.313-8.641,19.313-19.297v-54.438
		C479.344,249.344,470.688,240.688,460.031,240.688z" style="fill: rgb(75, 75, 75);"></path>
	<path class="st0" d="M367.594,92.844h-28.813v157.063c0,5.031-2.844,9.594-7.344,11.828c-4.5,2.203-9.875,1.672-13.844-1.391
		l-39.188-30.141l-39.188,30.141c-3.969,3.063-9.328,3.594-13.828,1.391c-4.5-2.234-7.359-6.797-7.359-11.828V92.844H95.781
		c-8.25,0-15.578-3.313-21-8.703c-5.406-5.453-8.703-12.766-8.703-21.016s3.297-15.578,8.703-21.016
		c5.422-5.391,12.75-8.703,21-8.703h266.031c9.219,0,16.688-7.469,16.688-16.703S371.031,0,361.813,0H95.781
		c-17.375,0-33.25,7.094-44.625,18.5c-11.406,11.359-18.5,27.25-18.5,44.625V470.75c0,22.781,18.469,41.25,41.25,41.25h293.688
		c31.406,0,56.844-25.438,56.844-56.813V149.656C424.438,118.281,399,92.844,367.594,92.844z" style="fill: rgb(75, 75, 75);"></path>
</g>
</svg>
